<svg width="17" height="13" viewBox="0 0 17 13" fill="none" xmlns="http://www.w3.org/2000/svg">
<path d="M5.85996 13C5.72285 12.9995 5.58729 12.9709 5.4617 12.9158C5.33612 12.8608 5.2232 12.7805 5.12996 12.68L0.269964 7.50997C0.0882905 7.31636 -0.00903135 7.05852 -0.000592218 6.79315C0.00784692 6.52779 0.121356 6.27664 0.314964 6.09497C0.508572 5.9133 0.76642 5.81598 1.03178 5.82442C1.29715 5.83285 1.54829 5.94636 1.72996 6.13997L5.84996 10.53L14.26 1.32997C14.3453 1.22369 14.4515 1.13599 14.572 1.07223C14.6924 1.00848 14.8247 0.970035 14.9606 0.959251C15.0964 0.948466 15.2331 0.965574 15.3621 1.00952C15.4911 1.05347 15.6098 1.12333 15.7108 1.21482C15.8119 1.3063 15.8932 1.41748 15.9497 1.54151C16.0062 1.66555 16.0367 1.79983 16.0395 1.93611C16.0422 2.07239 16.017 2.20778 15.9655 2.33398C15.914 2.46018 15.8373 2.57452 15.74 2.66997L6.59996 12.67C6.50761 12.7723 6.39508 12.8545 6.26945 12.9113C6.14383 12.9681 6.00782 12.9983 5.86996 13H5.85996Z" fill="black"/>
</svg>
