<svg width="16" height="16" viewBox="0 0 16 16" fill="none" xmlns="http://www.w3.org/2000/svg">
<path d="M5.99994 9C6.28204 9 6.54027 9.1583 6.66828 9.4097C6.79629 9.661 6.77241 9.963 6.6065 10.1911L3.47277 14.5H5.99994C6.41416 14.5 6.74994 14.8358 6.74994 15.25C6.74994 15.6642 6.41416 16 5.99994 16H1.99994C1.71785 16 1.45961 15.8417 1.33161 15.5903C1.2036 15.339 1.22747 15.037 1.39339 14.8089L4.52712 10.5H1.99994C1.58573 10.5 1.24994 10.1642 1.24994 9.75C1.24994 9.3358 1.58573 9 1.99994 9H5.99994ZM11.4999 0C11.9141 0 12.2499 0.33579 12.2499 0.75V13.5241L14.7382 11.2017C15.041 10.9191 15.5156 10.9355 15.7982 11.2383C16.0808 11.5411 16.0645 12.0157 15.7616 12.2983L12.0116 15.7983C11.7235 16.0672 11.2763 16.0672 10.9882 15.7983L7.2382 12.2983C6.93539 12.0157 6.91903 11.5411 7.20165 11.2383C7.48428 10.9355 7.95887 10.9191 8.26164 11.2017L10.7499 13.5241V0.75C10.7499 0.33579 11.0857 0 11.4999 0ZM3.99996 0C4.31961 0 4.60414 0.2026 4.7087 0.50467L6.9587 7.00467C7.09419 7.39609 6.88672 7.82325 6.49529 7.95874C6.10387 8.0942 5.67671 7.88676 5.54122 7.49533L5.19668 6.5H2.80324L2.4587 7.49533C2.32321 7.88676 1.89605 8.0942 1.50463 7.95874C1.1132 7.82325 0.905729 7.39609 1.04122 7.00467L3.29122 0.50467C3.39578 0.2026 3.68031 0 3.99996 0ZM3.99996 3.0428L3.32247 5H4.67745L3.99996 3.0428Z" fill="#212121"/>
<line x1="1.36553" y1="0.658841" x2="15.3655" y2="15.6588" stroke="#B93535"/>
<line x1="14.6372" y1="0.347936" x2="0.359047" y2="15.0835" stroke="#B93535"/>
</svg>
